<?xml version="1.0" encoding="UTF-8" standalone="no"?>
<svg width="160px" height="160px" viewBox="0 0 160 160" version="1.1" xmlns="http://www.w3.org/2000/svg" xmlns:xlink="http://www.w3.org/1999/xlink">
    <!-- Generator: sketchtool 39.1 (31720) - http://www.bohemiancoding.com/sketch -->
    <title>740B5E16-2D02-4FF6-8481-E216BDB6AC97</title>
    <desc>Created with sketchtool.</desc>
    <defs>
        <rect id="path-1" x="37.0149254" y="25.0746269" width="91.9402985" height="117.014925" rx="5"></rect>
        <mask id="mask-2" maskContentUnits="userSpaceOnUse" maskUnits="objectBoundingBox" x="0" y="0" width="91.9402985" height="117.014925" fill="white">
            <use xlink:href="#path-1"></use>
        </mask>
        <rect id="path-3" x="45.3731343" y="33.4328358" width="76.4179104" height="99.1044776" rx="2"></rect>
        <mask id="mask-4" maskContentUnits="userSpaceOnUse" maskUnits="objectBoundingBox" x="0" y="0" width="76.4179104" height="99.1044776" fill="white">
            <use xlink:href="#path-3"></use>
        </mask>
        <path d="M76.4405311,21.4925373 L67.2872845,21.4925373 C65.0803677,21.4925373 63.2835821,23.2794793 63.2835821,25.4837839 L63.2835821,35.8208955 L103.880597,35.8208955 L103.880597,25.4837839 C103.880597,23.2782629 102.088078,21.4925373 99.8768946,21.4925373 L91.9176778,21.4925373 C91.6128272,17.4851058 88.2646148,14.3283582 84.1791045,14.3283582 C80.0935942,14.3283582 76.7453818,17.4851058 76.4405311,21.4925373 Z" id="path-5"></path>
        <mask id="mask-6" maskContentUnits="userSpaceOnUse" maskUnits="objectBoundingBox" x="0" y="0" width="40.5970149" height="21.4925373" fill="white">
            <use xlink:href="#path-5"></use>
        </mask>
        <rect id="path-7" x="70.4477612" y="46.5671642" width="42.9850746" height="2.3880597"></rect>
        <mask id="mask-8" maskContentUnits="userSpaceOnUse" maskUnits="objectBoundingBox" x="0" y="0" width="42.9850746" height="2.3880597" fill="white">
            <use xlink:href="#path-7"></use>
        </mask>
        <rect id="path-9" x="70.4477612" y="51.3432836" width="42.9850746" height="2.3880597"></rect>
        <mask id="mask-10" maskContentUnits="userSpaceOnUse" maskUnits="objectBoundingBox" x="0" y="0" width="42.9850746" height="2.3880597" fill="white">
            <use xlink:href="#path-9"></use>
        </mask>
        <rect id="path-11" x="70.4477612" y="56.119403" width="21.4925373" height="2.3880597"></rect>
        <mask id="mask-12" maskContentUnits="userSpaceOnUse" maskUnits="objectBoundingBox" x="0" y="0" width="21.4925373" height="2.3880597" fill="white">
            <use xlink:href="#path-11"></use>
        </mask>
        <rect id="path-13" x="70.4477612" y="106.268657" width="42.9850746" height="2.3880597"></rect>
        <mask id="mask-14" maskContentUnits="userSpaceOnUse" maskUnits="objectBoundingBox" x="0" y="0" width="42.9850746" height="2.3880597" fill="white">
            <use xlink:href="#path-13"></use>
        </mask>
        <rect id="path-15" x="70.4477612" y="111.044776" width="42.9850746" height="2.3880597"></rect>
        <mask id="mask-16" maskContentUnits="userSpaceOnUse" maskUnits="objectBoundingBox" x="0" y="0" width="42.9850746" height="2.3880597" fill="white">
            <use xlink:href="#path-15"></use>
        </mask>
        <rect id="path-17" x="70.4477612" y="115.820896" width="21.4925373" height="2.3880597"></rect>
        <mask id="mask-18" maskContentUnits="userSpaceOnUse" maskUnits="objectBoundingBox" x="0" y="0" width="21.4925373" height="2.3880597" fill="white">
            <use xlink:href="#path-17"></use>
        </mask>
        <rect id="path-19" x="70.4477612" y="85.9701493" width="42.9850746" height="2.3880597"></rect>
        <mask id="mask-20" maskContentUnits="userSpaceOnUse" maskUnits="objectBoundingBox" x="0" y="0" width="42.9850746" height="2.3880597" fill="white">
            <use xlink:href="#path-19"></use>
        </mask>
        <rect id="path-21" x="70.4477612" y="90.7462687" width="42.9850746" height="2.3880597"></rect>
        <mask id="mask-22" maskContentUnits="userSpaceOnUse" maskUnits="objectBoundingBox" x="0" y="0" width="42.9850746" height="2.3880597" fill="white">
            <use xlink:href="#path-21"></use>
        </mask>
        <rect id="path-23" x="70.4477612" y="95.5223881" width="21.4925373" height="2.3880597"></rect>
        <mask id="mask-24" maskContentUnits="userSpaceOnUse" maskUnits="objectBoundingBox" x="0" y="0" width="21.4925373" height="2.3880597" fill="white">
            <use xlink:href="#path-23"></use>
        </mask>
        <rect id="path-25" x="70.4477612" y="66.8656716" width="42.9850746" height="2.3880597"></rect>
        <mask id="mask-26" maskContentUnits="userSpaceOnUse" maskUnits="objectBoundingBox" x="0" y="0" width="42.9850746" height="2.3880597" fill="white">
            <use xlink:href="#path-25"></use>
        </mask>
        <rect id="path-27" x="70.4477612" y="71.641791" width="42.9850746" height="2.3880597"></rect>
        <mask id="mask-28" maskContentUnits="userSpaceOnUse" maskUnits="objectBoundingBox" x="0" y="0" width="42.9850746" height="2.3880597" fill="white">
            <use xlink:href="#path-27"></use>
        </mask>
        <rect id="path-29" x="70.4477612" y="76.4179104" width="21.4925373" height="2.3880597"></rect>
        <mask id="mask-30" maskContentUnits="userSpaceOnUse" maskUnits="objectBoundingBox" x="0" y="0" width="21.4925373" height="2.3880597" fill="white">
            <use xlink:href="#path-29"></use>
        </mask>
    </defs>
    <g id="Page-1" stroke="none" stroke-width="1" fill="none" fill-rule="evenodd">
        <g id="homepage-experiments-final" transform="translate(-200.000000, -1003.000000)">
            <g id="Group-22" transform="translate(200.000000, 1003.000000)">
                <circle id="Oval-5" fill="#EFF9FF" cx="80" cy="80" r="80"></circle>
                <rect id="Rectangle-3" fill-opacity="0.25" fill="#0094FF" x="33.4328358" y="28.6567164" width="91.9402985" height="117.014925" rx="5"></rect>
                <use id="Rectangle-3" stroke="#0094FF" mask="url(#mask-2)" stroke-width="2" fill="#FFFFFF" xlink:href="#path-1"></use>
                <use id="Rectangle-6" stroke="#0094FF" mask="url(#mask-4)" stroke-width="2" fill="#FFFFFF" xlink:href="#path-3"></use>
                <rect id="Rectangle-7" fill="#D9F0FF" x="53.7313433" y="46.5671642" width="10.7462687" height="10.7462687"></rect>
                <path d="M72.8584416,21.4925373 L63.7051949,21.4925373 C61.4982781,21.4925373 59.7014925,23.2794793 59.7014925,25.4837839 L59.7014925,35.8208955 L100.298507,35.8208955 L100.298507,25.4837839 C100.298507,23.2782629 98.5059888,21.4925373 96.2948051,21.4925373 L88.3355883,21.4925373 C88.0307376,17.4851058 84.6825252,14.3283582 80.5970149,14.3283582 C76.5115046,14.3283582 73.1632922,17.4851058 72.8584416,21.4925373 Z" id="Combined-Shape" fill-opacity="0.25" fill="#0094FF"></path>
                <rect id="Rectangle-7" fill="#5FBDFF" x="53.7313433" y="66.8656716" width="10.7462687" height="10.7462687"></rect>
                <rect id="Rectangle-7" fill="#D9F0FF" x="53.7313433" y="85.9701493" width="10.7462687" height="10.7462687"></rect>
                <rect id="Rectangle-7" fill="#5FBDFF" x="53.7313433" y="106.268657" width="10.7462687" height="10.7462687"></rect>
                <use id="Combined-Shape" stroke="#0094FF" mask="url(#mask-6)" stroke-width="2" fill="#FFFFFF" xlink:href="#path-5"></use>
                <use id="Rectangle-9" stroke="#D9F0FF" mask="url(#mask-8)" stroke-width="2" fill="#D8D8D8" xlink:href="#path-7"></use>
                <use id="Rectangle-9" stroke="#D9F0FF" mask="url(#mask-10)" stroke-width="2" fill="#D8D8D8" xlink:href="#path-9"></use>
                <use id="Rectangle-9" stroke="#D9F0FF" mask="url(#mask-12)" stroke-width="2" fill="#D8D8D8" xlink:href="#path-11"></use>
                <use id="Rectangle-9" stroke="#D9F0FF" mask="url(#mask-14)" stroke-width="2" fill="#D8D8D8" xlink:href="#path-13"></use>
                <use id="Rectangle-9" stroke="#D9F0FF" mask="url(#mask-16)" stroke-width="2" fill="#D8D8D8" xlink:href="#path-15"></use>
                <use id="Rectangle-9" stroke="#D9F0FF" mask="url(#mask-18)" stroke-width="2" fill="#D8D8D8" xlink:href="#path-17"></use>
                <use id="Rectangle-9" stroke="#D9F0FF" mask="url(#mask-20)" stroke-width="2" fill="#D8D8D8" xlink:href="#path-19"></use>
                <use id="Rectangle-9" stroke="#D9F0FF" mask="url(#mask-22)" stroke-width="2" fill="#D8D8D8" xlink:href="#path-21"></use>
                <use id="Rectangle-9" stroke="#D9F0FF" mask="url(#mask-24)" stroke-width="2" fill="#D8D8D8" xlink:href="#path-23"></use>
                <use id="Rectangle-9" stroke="#D9F0FF" mask="url(#mask-26)" stroke-width="2" fill="#D8D8D8" xlink:href="#path-25"></use>
                <use id="Rectangle-9" stroke="#D9F0FF" mask="url(#mask-28)" stroke-width="2" fill="#D8D8D8" xlink:href="#path-27"></use>
                <use id="Rectangle-9" stroke="#D9F0FF" mask="url(#mask-30)" stroke-width="2" fill="#D8D8D8" xlink:href="#path-29"></use>
                <g id="noun_159891_cc" transform="translate(96.716418, 96.716418)" fill="#0094FF" fill-opacity="0.25">
                    <g id="Group">
                        <path d="M19.1049675,46.3546396 L18.8869805,46.2857796 C18.6944661,46.2253414 14.128496,44.7411369 9.54587065,39.1094824 C1.97559893,29.8064528 0.386498278,16.5318387 0.386498278,7.03312798 L0.386498278,6.31232772 L1.09924225,6.29003493 C1.20946039,6.28656716 12.2053119,5.88480152 18.6322541,0.421581454 L19.1049675,0.0198158145 L19.5776808,0.421581454 C26.0129506,5.89223245 36.9999847,6.28706256 37.1102028,6.29003493 L37.8229468,6.31183233 L37.8229468,7.03312798 C37.8229468,16.5313433 36.2338462,29.8064528 28.6640643,39.1094824 C24.081439,44.7411369 19.5154688,46.2258368 19.3229545,46.286275 L19.1049675,46.3546396 Z" id="Shape"></path>
                    </g>
                </g>
                <g id="noun_159891_cc" transform="translate(101.492537, 97.910448)" fill="#FFFFFF" stroke="#0094FF">
                    <g id="Group">
                        <path d="M19.1049675,46.3546396 L18.8869805,46.2857796 C18.6944661,46.2253414 14.128496,44.7411369 9.54587065,39.1094824 C1.97559893,29.8064528 0.386498278,16.5318387 0.386498278,7.03312798 L0.386498278,6.31232772 L1.09924225,6.29003493 C1.20946039,6.28656716 12.2053119,5.88480152 18.6322541,0.421581454 L19.1049675,0.0198158145 L19.5776808,0.421581454 C26.0129506,5.89223245 36.9999847,6.28706256 37.1102028,6.29003493 L37.8229468,6.31183233 L37.8229468,7.03312798 C37.8229468,16.5313433 36.2338462,29.8064528 28.6640643,39.1094824 C24.081439,44.7411369 19.5154688,46.2258368 19.3229545,46.286275 L19.1049675,46.3546396 Z" id="Shape"></path>
                    </g>
                </g>
                <ellipse id="Oval-4" fill="#5FBDFF" opacity="0.240788246" cx="84.1791045" cy="20.8955224" rx="2.98507463" ry="2.98507463"></ellipse>
                <text id="check---materialicons-regular" font-family="materialicons-regular" font-size="20" font-weight="normal" fill="#0094FF">
                    <tspan x="111.850746" y="126.462687"></tspan>
                </text>
            </g>
        </g>
    </g>
</svg>