<?xml version="1.0" encoding="UTF-8" standalone="no"?>
<svg width="160px" height="160px" viewBox="0 0 160 160" version="1.1" xmlns="http://www.w3.org/2000/svg" xmlns:xlink="http://www.w3.org/1999/xlink">
    <!-- Generator: sketchtool 39.1 (31720) - http://www.bohemiancoding.com/sketch -->
    <title>265829DF-1345-4E34-BE86-697F46983DDE</title>
    <desc>Created with sketchtool.</desc>
    <defs>
        <rect id="path-1" x="45.3508853" y="57.6119403" width="7.47566515" height="17.1940299"></rect>
        <mask id="mask-2" maskContentUnits="userSpaceOnUse" maskUnits="objectBoundingBox" x="0" y="0" width="7.47566515" height="17.1940299" fill="white">
            <use xlink:href="#path-1"></use>
        </mask>
        <rect id="path-3" x="108.07479" y="57.6119403" width="7.47566515" height="17.1940299"></rect>
        <mask id="mask-4" maskContentUnits="userSpaceOnUse" maskUnits="objectBoundingBox" x="0" y="0" width="7.47566515" height="17.1940299" fill="white">
            <use xlink:href="#path-3"></use>
        </mask>
    </defs>
    <g id="Page-1" stroke="none" stroke-width="1" fill="none" fill-rule="evenodd">
        <g id="homepage-experiments-final" transform="translate(-920.000000, -1003.000000)">
            <g id="Group-21" transform="translate(920.000000, 1003.000000)">
                <ellipse id="Oval-5" fill="#EFF9FF" cx="80" cy="80" rx="79.5031056" ry="80"></ellipse>
                <path d="M66.6141689,89.1459094 L66.6141689,94.4952065 L42.8963105,105.605285 C42.8963105,105.605285 35.9445245,108.485676 35.9445245,114.657942 C35.5355959,120.830208 35.9445245,137.701068 35.9445245,137.701068 L125.090958,137.701068 C125.499886,137.701068 125.499886,122.064661 125.499886,120.830208 C125.090958,115.069426 123.046315,108.89716 117.321314,106.428254 C109.142743,102.31341 101.373099,98.1985661 93.603456,93.6722377 L94.0123846,89.5573938" id="Shape" stroke="#0094FF" stroke-width="0.972" fill="#FFFFFF"></path>
                <polygon id="Shape" fill-opacity="0.25" fill="#0094FF" points="64.3714129 95.0665173 78.9823132 102.061752 73.5032256 112.348862 61.1752784 101.238783"></polygon>
                <path d="M66.6141689,89.1459094 L66.6141689,94.4952065 L42.8963105,105.605285 C42.8963105,105.605285 35.9445245,108.485676 35.9445245,114.657942 C35.5355959,120.830208 35.9445245,137.701068 35.9445245,137.701068 L125.090958,137.701068 C125.499886,137.701068 125.499886,122.064661 125.499886,120.830208 C125.090958,115.069426 123.046315,108.89716 117.321314,106.428254 C109.142743,102.31341 101.373099,98.1985661 93.603456,93.6722377 L94.0123846,89.5573938" id="Shape" stroke="#4688F1" stroke-width="0.972"></path>
                <path d="M103.549484,62.0996222 C103.334089,57.8856663 103.008814,53.724798 103.008814,50.0548918 L62.4381199,43.641791 L58.0266685,60.7534861 C58.0266685,61.1568317 58.0218177,61.5638381 58.0133709,61.9739737 C56.5664322,62.3344139 55.46456,64.1854182 55.46456,66.4146716 C55.46456,68.4997818 56.4285452,70.2539766 57.7372271,70.7670565 C57.7571808,75.2347972 58.3320312,79.6424086 60.8891686,83.3851278 C65.3873831,89.9688782 73.1570264,93.6722377 80.9266696,93.6722377 C90.3320273,93.2607534 100.964171,87.0884874 103.008814,77.2128619 C103.417572,75.1562965 103.622036,72.9455529 103.698785,70.6576881 C104.884163,70.03547 105.732465,68.3706727 105.732465,66.4146716 C105.732465,64.3774877 104.812285,62.6561819 103.549484,62.0996222 Z" id="Combined-Shape" stroke="#0094FF" stroke-width="0.972" fill="#FFFFFF"></path>
                <polygon id="Shape" stroke="#0094FF" stroke-width="0.972" fill="#FFFFFF" points="67.4320261 93.2607534 80.5177411 100.255988 75.6105979 110.543098 64.5695259 99.4330193"></polygon>
                <path d="M63.5015738,47.4261591 C63.5015738,48.2491278 66.3640739,51.1295186 67.1819311,51.541003 C68.8176455,53.1869406 70.4533599,54.8328782 72.0890742,56.0673314 C75.360503,58.9477221 79.0408603,61.4166285 83.5390748,61.8281129 C92.1265753,62.6510817 99.8962185,53.1869406 104.803362,47.4261591 C105.21229,47.0146747 107.665862,43.3113151 108.07479,43.3113151 C105.621219,43.3113151 101.531933,40.8424087 99.4872899,39.6079555 C92.9444324,36.3160804 87.6283607,31.3782676 80.6765747,30.1438144 C75.360503,29.3208456 68.4087169,29.3208456 63.9105024,33.0242052 C57.3676449,38.7849867 55.7319305,44.5457683 54.5051447,52.7754562 C53.278359,61.0051441 55.7319305,62.6510817 55.7319305,62.6510817 C55.7319305,62.6510817 60.230145,62.2395973 61.8658594,56.8903002 C63.0926452,51.1295186 63.5015738,47.4261591 63.5015738,47.4261591 L63.5015738,47.4261591 Z" id="Shape" stroke="#0094FF" stroke-width="0.972" fill="#D9F0FF"></path>
                <path d="M76.0195265,34.6701428 C76.0195265,34.6701428 82.9713126,40.4309243 89.9230987,42.4883463 C96.8748848,44.5457683 106.280242,43.3113151 106.280242,43.3113151" id="Shape" stroke="#0094FF" stroke-width="0.9" stroke-linecap="round"></path>
                <polygon id="Shape" fill-opacity="0.25" fill="#0094FF" points="93.1366229 95.0665173 78.9823132 102.871333 84.4614008 114.349003 96.789348 101.953119"></polygon>
                <path d="M72.3391692,38.1218443 C72.3391692,38.1218443 78.8820267,45.9400478 83.7891698,47.174501 C88.6963129,48.4089542 94.0123846,48.4089542 94.0123846,48.4089542" id="Shape" stroke="#0094FF" stroke-width="0.9" stroke-linecap="round"></path>
                <polygon id="Shape" stroke="#0094FF" stroke-width="0.972" fill="#FFFFFF" points="93.1945274 93.2607534 80.5177411 100.255988 85.4248842 110.543098 96.4659562 99.4330193"></polygon>
                <path d="M111.770478,70.6012883 C111.770478,70.6012883 111.773725,54.0306859 111.770479,53.8425748 C111.472146,36.5536345 97.5209739,22.6312844 80.3544856,22.6312844 C63.0012185,22.6312844 48.9336161,36.8582449 48.9336161,54.4080901 L48.9336161,72.6617311" id="Oval-19" stroke="#0094FF" stroke-width="0.9"></path>
                <path d="M111.56392,88.7761191 C111.56392,88.7761191 108.571813,81.4559422 100.884398,76.9552234 C95.4462574,73.7713781 87.9479753,72.6567161 80.5933068,72.6567161" id="Oval-19" stroke="#0094FF" stroke-width="0.9" transform="translate(96.078613, 80.716418) scale(-1, 1) rotate(-180.000000) translate(-96.078613, -80.716418) "></path>
                <use id="Rectangle" stroke="#0094FF" mask="url(#mask-2)" stroke-width="1.8" fill="#FFFFFF" xlink:href="#path-1"></use>
                <path d="M46.4188375,59.7564895 C46.4188375,59.1655877 46.8510696,58.4691004 47.3743397,58.2058301 L48.5547418,57.6119403 L48.5547418,74.8059701 L47.3743397,74.2120803 C46.8466304,73.9465766 46.4188375,73.2478163 46.4188375,72.661421 L46.4188375,59.7564895 Z" id="Rectangle" fill-opacity="0.25" fill="#0094FF"></path>
                <use id="Rectangle" stroke="#0094FF" mask="url(#mask-4)" stroke-width="1.8" fill="#FFFFFF" transform="translate(111.812623, 66.208955) scale(-1, 1) translate(-111.812623, -66.208955) " xlink:href="#path-3"></use>
                <rect id="Rectangle" fill-opacity="0.25" fill="#0094FF" transform="translate(109.943707, 66.208955) scale(-1, 1) translate(-109.943707, -66.208955) " x="108.07479" y="57.6119403" width="3.73783258" height="17.1940299"></rect>
                <ellipse id="Oval-21" fill-opacity="0.25" fill="#0094FF" cx="113.859535" cy="121.290825" rx="18.6605371" ry="18.7771654"></ellipse>
                <ellipse id="Oval-20" fill="#5FBDFF" cx="81.5237479" cy="88.6468709" rx="3.3323022" ry="3.35312909"></ellipse>
                <ellipse id="Oval-21" stroke="#0094FF" stroke-width="0.9" fill="#FFFFFF" cx="116.875055" cy="121.753718" rx="18.6605371" ry="18.7771654"></ellipse>
                <g id="Group-2" transform="translate(105.661557, 112.082076)">
                    <g id="Group">
                        <path d="M6.94168907,2.68656716 L20.8250672,2.68656716" id="Line" stroke="#0094FF" stroke-width="0.9" stroke-linecap="round" stroke-linejoin="round"></path>
                        <ellipse id="Oval-22" fill="#D9F0FF" cx="2.46945722" cy="2.68656716" rx="2.31804288" ry="2.33253065"></ellipse>
                    </g>
                    <g id="Group" transform="translate(0.056084, 6.985075)">
                        <path d="M6.94168907,2.68656716 L20.8250672,2.68656716" id="Line" stroke="#0094FF" stroke-width="0.9" stroke-linecap="round" stroke-linejoin="round"></path>
                        <ellipse id="Oval-22" fill="#D9F0FF" cx="2.46945722" cy="2.68656716" rx="2.31804288" ry="2.33253065"></ellipse>
                    </g>
                    <g id="Group" transform="translate(0.056084, 13.970149)">
                        <path d="M6.94168907,2.68656716 L20.8250672,2.68656716" id="Line" stroke="#0094FF" stroke-width="0.9" stroke-linecap="round" stroke-linejoin="round"></path>
                        <ellipse id="Oval-22" fill="#D9F0FF" cx="2.46945722" cy="2.68656716" rx="2.31804288" ry="2.33253065"></ellipse>
                    </g>
                </g>
                <polyline id="Path-15" stroke="#0094FF" stroke-linecap="round" stroke-linejoin="round" points="106.878842 121.983564 108.120628 123.160966 110.917642 120.34647"></polyline>
            </g>
        </g>
    </g>
</svg>